<?xml version="1.0" encoding="iso-8859-1"?>
<!-- Uploaded to: SVG Repo, www.svgrepo.com, Generator: SVG Repo Mixer Tools -->
<svg height="800px" width="800px" version="1.1" id="Layer_1" xmlns="http://www.w3.org/2000/svg" xmlns:xlink="http://www.w3.org/1999/xlink" 
	 viewBox="0 0 506.4 506.4" xml:space="preserve">
<g>
	<path style="fill:#FFB9A4;" d="M242,326.815c0,90.4-0.8,163.2-73.6,163.2c-73.6,0-132.8-112-132.8-202.4s59.2-107.2,132.8-107.2
		C241.2,180.415,242,236.415,242,326.815z"/>
	<path style="fill:#FFB9A4;" d="M256.4,142.015c-4.8,20.8-34.4,76.8-54.4,72.8s-24-68.8-19.2-88.8c4.8-20.8,24.8-33.6,44.8-28.8
		C247.6,101.215,261.2,122.015,256.4,142.015z"/>
	<path style="fill:#FFB9A4;" d="M182,129.215c0.8,19.2-12.8,76-32,76.8s-36.8-55.2-37.6-74.4c-0.8-19.2,14.4-35.2,33.6-36
		C165.2,95.615,181.2,110.015,182,129.215z"/>
	<path style="fill:#FFB9A4;" d="M118,139.615c4,15.2,4,64.8-11.2,68.8c-16,4.8-40.8-37.6-45.6-52.8c-4-15.2,4.8-32,20.8-36
		C97.2,114.815,113.2,124.415,118,139.615z"/>
	<path style="fill:#FFB9A4;" d="M68.4,169.215c7.2,12,20.8,52,8.8,60s-44-20-51.2-32c-8-12-4.8-27.2,7.2-35.2
		S60.4,158.015,68.4,169.215z"/>
	<path style="fill:#FFB9A4;" d="M36.4,210.015c8,8,25.6,40,16.8,48c-8,8-39.2-9.6-47.2-18.4c-8-8-8-21.6,0-29.6
		C14.8,201.215,28.4,201.215,36.4,210.015z"/>
</g>
<g>
	
		<ellipse transform="matrix(-0.5272 -0.8498 0.8498 -0.5272 114.035 285.3522)" style="fill:#F7DDC6;" cx="136.406" cy="110.95" rx="9.6" ry="19.201"/>
	
		<ellipse transform="matrix(-0.527 -0.8499 0.8499 -0.527 8.2135 274.4813)" style="fill:#F7DDC6;" cx="80.491" cy="134.955" rx="9.6" ry="19.201"/>
	
		<ellipse transform="matrix(-0.6283 -0.7779 0.7779 -0.6283 -72.4481 311.8894)" style="fill:#F7DDC6;" cx="38.279" cy="173.251" rx="7.2" ry="15.999"/>
	
		<ellipse transform="matrix(-0.923 -0.3849 0.3849 -0.923 -65.1102 427.9888)" style="fill:#F7DDC6;" cx="10.276" cy="220.51" rx="6.4" ry="14.401"/>
	<path style="fill:#F7DDC6;" d="M223.6,102.815c2.4,4-2.4,12.8-12,18.4c-8.8,5.6-18.4,6.4-21.6,2.4c-2.4-4,2.4-12.8,12-18.4
		S221.2,98.815,223.6,102.815z"/>
	
		<ellipse transform="matrix(-0.7109 -0.7033 0.7033 -0.7109 -41.1968 467.802)" style="fill:#F7DDC6;" cx="75.551" cy="242.368" rx="13.6" ry="42.4"/>
	<path style="fill:#F7DDC6;" d="M218,210.015c-0.8,8-21.6,12.8-47.2,11.2c-25.6-0.8-45.6-8-45.6-16c0.8-8,21.6-12.8,47.2-11.2
		C198,194.815,218,202.815,218,210.015z"/>
	<path style="fill:#F7DDC6;" d="M98,416.415c8-36.8,52-59.2,98.4-48.8c8,1.6,15.2,4,22.4,8c-9.6-12.8-23.2-22.4-40-25.6
		c-36.8-8-73.6,15.2-81.6,52.8c-1.6,8.8-2.4,16.8-0.8,25.6C97.2,423.615,97.2,419.615,98,416.415z"/>
	
		<ellipse transform="matrix(-0.2812 -0.9597 0.9597 -0.2812 -118.5126 512.0497)" style="fill:#F7DDC6;" cx="132.515" cy="300.41" rx="3.2" ry="40.802"/>
	<path style="fill:#F7DDC6;" d="M178.8,308.415c0.8,1.6-16.8,8-38.4,14.4s-40,10.4-40,8c-0.8-1.6,16.8-8,38.4-14.4
		C160.4,310.015,178,306.015,178.8,308.415z"/>
</g>
<g>
	<path style="fill:#FFB9A4;" d="M264.4,246.815c0,90.4,0.8,163.2,73.6,163.2c73.6,0,132.8-112,132.8-202.4s-59.2-106.4-132.8-106.4
		C265.2,101.215,264.4,156.415,264.4,246.815z"/>
	<path style="fill:#FFB9A4;" d="M250,62.815c4.8,20.8,34.4,76.8,54.4,72.8c20.8-4.8,24-68.8,19.2-88.8
		c-4.8-20.8-24.8-33.6-44.8-28.8C258.8,22.015,245.2,42.015,250,62.815z"/>
	<path style="fill:#FFB9A4;" d="M324.4,50.015c-0.8,19.2,12.8,76,32,76.8s36.8-55.2,37.6-74.4c0.8-19.2-14.4-35.2-33.6-36
		C341.2,15.615,325.2,30.815,324.4,50.015z"/>
	<path style="fill:#FFB9A4;" d="M388.4,60.415c-4,15.2-4,64.8,11.2,68.8s40.8-38.4,44.8-53.6s-4.8-32-20.8-36
		C409.2,35.615,393.2,44.415,388.4,60.415z"/>
	<path style="fill:#FFB9A4;" d="M438,90.015c-8,12-20.8,52-9.6,60c12,8,44-20,51.2-32c8-12,4.8-27.2-7.2-35.2
		C461.2,74.815,446,78.015,438,90.015z"/>
	<path style="fill:#FFB9A4;" d="M470,130.015c-8,8-25.6,40-16.8,48c8,8,39.2-9.6,47.2-18.4c8-8,8-21.6,0-29.6
		C491.6,121.215,478,121.215,470,130.015z"/>
</g>
<g>
	<path style="fill:#F7DDC6;" d="M353.2,21.215c-2.4,4,2.4,12.8,12,18.4c8.8,5.6,18.4,6.4,21.6,2.4c2.4-4.8-3.2-12.8-12-18.4
		C365.2,17.215,355.6,16.415,353.2,21.215z"/>
	
		<ellipse transform="matrix(-0.5272 0.8498 -0.8498 -0.5272 696.3026 -277.7056)" style="fill:#F7DDC6;" cx="425.412" cy="54.867" rx="9.6" ry="19.201"/>
	
		<ellipse transform="matrix(-0.6279 0.7783 -0.7783 -0.6279 834.2437 -213.2677)" style="fill:#F7DDC6;" cx="468.103" cy="92.792" rx="7.2" ry="16"/>
	
		<ellipse transform="matrix(-0.9229 0.3851 -0.3851 -0.9229 1007.9622 78.7716)" style="fill:#F7DDC6;" cx="496.093" cy="140.317" rx="6.4" ry="14.4"/>
	
		<ellipse transform="matrix(-0.5272 0.8498 -0.8498 -0.5272 484.7462 -202.5308)" style="fill:#F7DDC6;" cx="298.72" cy="33.597" rx="9.6" ry="19.201"/>
	<path style="fill:#F7DDC6;" d="M400.4,132.415c-5.6,5.6,4,23.2,20,39.2c16,16.8,33.6,25.6,39.2,20.8c5.6-5.6-4-23.2-20-39.2
		C423.6,136.415,406,127.615,400.4,132.415z"/>
	<path style="fill:#F7DDC6;" d="M288.4,130.015c0.8,8,21.6,12.8,47.2,11.2s45.6-8.8,45.6-16c-0.8-8-21.6-12.8-47.2-11.2
		C308.4,115.615,288.4,122.815,288.4,130.015z"/>
	<path style="fill:#F7DDC6;" d="M408.4,336.415c-8-36.8-52-59.2-98.4-48.8c-8,1.6-15.2,4-22.4,8c9.6-12.8,23.2-22.4,40-25.6
		c36.8-8,73.6,15.2,81.6,52.8c1.6,8.8,2.4,16.8,0.8,25.6C409.2,343.615,409.2,339.615,408.4,336.415z"/>
	
		<ellipse transform="matrix(-0.2812 0.9596 -0.9596 -0.2812 690.4362 -76.8171)" style="fill:#F7DDC6;" cx="373.987" cy="220.164" rx="3.2" ry="40.798"/>
	
		<ellipse transform="matrix(-0.2812 0.9597 -0.9597 -0.2812 700.1369 -44.7223)" style="fill:#F7DDC6;" cx="366.818" cy="239.852" rx="3.2" ry="40.802"/>
</g>
</svg>