<?xml version="1.0" encoding="iso-8859-1"?>
<!-- Uploaded to: SVG Repo, www.svgrepo.com, Generator: SVG Repo Mixer Tools -->
<svg height="800px" width="800px" version="1.1" id="Layer_1" xmlns="http://www.w3.org/2000/svg" xmlns:xlink="http://www.w3.org/1999/xlink" 
	 viewBox="0 0 512 512" xml:space="preserve">
<g>
	<path style="fill:#FDC794;" d="M91.119,173.559c0-11.281,8.678-26.034,21.695-26.034s20.827,14.753,20.827,26.034v8.678
		c0-13.017,8.678-26.034,21.695-26.034s21.695,13.017,21.695,26.034v158.807c0,0.868,0,1.736,0,1.736v0.868
		c0-16.488,11.281-52.936,26.902-68.556c13.017-13.017,50.332-4.339,30.373,24.298c-13.017,19.959-21.695,62.481-21.695,84.176
		c0,53.803-43.39,67.688-43.39,67.688v34.712c0,9.546-0.868,26.034-18.224,26.034H43.39c-21.695,0-21.695-16.488-21.695-26.034
		v-34.712C2.603,425.22,4.339,431.295,4.339,371.417V216.949c0-11.281,8.678-26.034,21.695-26.034s21.695,14.753,21.695,26.034
		v-26.034c0-11.281,8.678-26.034,22.563-26.034c12.149,0,20.827,14.753,20.827,26.034V173.559z"/>
	<path style="fill:#FDC794;" d="M420.881,173.559c0-11.281-8.678-26.034-21.695-26.034c-13.017,0-21.695,14.753-21.695,26.034v8.678
		c0-13.017-8.678-26.034-21.695-26.034c-13.017,0-21.695,13.017-21.695,26.034v158.807c0,0.868,0,1.736,0,1.736v0.868
		c0-16.488-11.281-52.936-26.902-68.556c-13.017-13.017-50.332-4.339-30.373,24.298c13.885,19.959,22.563,61.614,22.563,84.176
		c0,53.803,43.39,67.688,43.39,67.688v34.712c0,9.546,0,26.034,18.224,26.034H468.61c21.695,0,21.695-16.488,21.695-26.034v-34.712
		c19.092-26.034,17.356-19.959,17.356-79.837V216.949c0-11.281-8.678-26.034-21.695-26.034c-13.017,0-21.695,14.753-21.695,26.034
		v-26.034c0-11.281-8.678-26.034-22.563-26.034c-12.149,0-20.827,14.753-20.827,26.034V173.559z"/>
</g>
<g transform="translate(16 52)">
	<path id="SVGCleanerId_0" style="fill:#FDC794;" d="M144.542,399.254h-17.356"/>
	<path id="SVGCleanerId_1" style="fill:#F9A671;" d="M144.542,407.932h-17.356c-5.207,0-8.678-3.471-8.678-8.678
		s3.471-8.678,8.678-8.678h17.356c5.207,0,8.678,3.471,8.678,8.678S148.881,407.932,144.542,407.932z"/>
</g>
<g transform="translate(3 52)">
	<path id="SVGCleanerId_2" style="fill:#FDC794;" d="M27.373,399.254h17.356"/>
	<path id="SVGCleanerId_3" style="fill:#F9A671;" d="M44.729,407.932H27.373c-5.207,0-8.678-3.471-8.678-8.678
		s3.471-8.678,8.678-8.678h17.356c5.207,0,8.678,3.471,8.678,8.678S49.936,407.932,44.729,407.932z"/>
</g>
<g transform="translate(5 25)">
	<path id="SVGCleanerId_4" style="fill:#FDC794;" d="M42.729,191.949v112.814"/>
	<path id="SVGCleanerId_5" style="fill:#F9A671;" d="M42.729,313.441c-5.207,0-8.678-3.471-8.678-8.678V191.949
		c0-5.207,3.471-8.678,8.678-8.678s8.678,3.471,8.678,8.678v112.814C51.407,309.969,47.936,313.441,42.729,313.441z"/>
</g>
<g transform="translate(10 22)">
	<path id="SVGCleanerId_6" style="fill:#FDC794;" d="M81.119,168.915v130.169"/>
	<path id="SVGCleanerId_7" style="fill:#F9A671;" d="M81.119,307.763c-5.207,0-8.678-3.471-8.678-8.678V168.915
		c0-5.207,3.471-8.678,8.678-8.678s8.678,3.471,8.678,8.678v130.169C89.797,304.292,86.325,307.763,81.119,307.763z"/>
</g>
<g transform="translate(15 21)">
	<path id="SVGCleanerId_8" style="fill:#FDC794;" d="M119.508,161.237v138.847"/>
	<path id="SVGCleanerId_9" style="fill:#F9A671;" d="M119.508,308.763c-5.207,0-8.678-3.471-8.678-8.678V161.237
		c0-5.207,3.471-8.678,8.678-8.678s8.678,3.471,8.678,8.678v138.847C128.186,305.292,124.715,308.763,119.508,308.763z"/>
</g>
<g transform="translate(40 52)">
	<g>
		<path id="SVGCleanerId_2_1_" style="fill:#FDC794;" d="M311.458,399.254h17.356"/>
	</g>
	<g>
		<path id="SVGCleanerId_1_1_" style="fill:#F9A671;" d="M328.814,407.932h-17.356c-5.207,0-8.678-3.471-8.678-8.678
			s3.471-8.678,8.678-8.678h17.356c5.207,0,8.678,3.471,8.678,8.678S333.153,407.932,328.814,407.932z"/>
	</g>
</g>
<g transform="translate(53 52)">
	<g>
		<path id="SVGCleanerId_0_1_" style="fill:#FDC794;" d="M428.627,399.254h-17.356"/>
	</g>
	<g>
		<path id="SVGCleanerId_3_1_" style="fill:#F9A671;" d="M428.627,407.932h-17.356c-5.207,0-8.678-3.471-8.678-8.678
			s3.471-8.678,8.678-8.678h17.356c5.207,0,8.678,3.471,8.678,8.678S433.834,407.932,428.627,407.932z"/>
	</g>
</g>
<g transform="translate(53 25)">
	<g>
		<path id="SVGCleanerId_4_1_" style="fill:#FDC794;" d="M411.271,191.949v112.814"/>
	</g>
	<g>
		<path id="SVGCleanerId_5_1_" style="fill:#F9A671;" d="M411.271,313.441c-5.207,0-8.678-3.471-8.678-8.678V191.949
			c0-5.207,3.471-8.678,8.678-8.678s8.678,3.471,8.678,8.678v112.814C419.949,309.969,416.478,313.441,411.271,313.441z"/>
	</g>
</g>
<g transform="translate(48 22)">
	<g>
		<path id="SVGCleanerId_6_1_" style="fill:#FDC794;" d="M372.881,168.915v130.169"/>
	</g>
	<g>
		<path id="SVGCleanerId_7_1_" style="fill:#F9A671;" d="M372.881,307.763c-5.207,0-8.678-3.471-8.678-8.678V168.915
			c0-5.207,3.471-8.678,8.678-8.678c5.207,0,8.678,3.471,8.678,8.678v130.169C381.559,304.292,378.088,307.763,372.881,307.763z"/>
	</g>
</g>
<g transform="translate(43 21)">
	<g>
		<path id="SVGCleanerId_8_1_" style="fill:#FDC794;" d="M334.492,161.237v138.847"/>
	</g>
	<g>
		<path id="SVGCleanerId_9_1_" style="fill:#F9A671;" d="M334.492,308.763c-5.207,0-8.678-3.471-8.678-8.678V161.237
			c0-5.207,3.471-8.678,8.678-8.678c5.207,0,8.678,3.471,8.678,8.678v138.847C343.169,305.292,339.698,308.763,334.492,308.763z"/>
	</g>
</g>
<g>
	<path style="fill:#71C386;" d="M256,104.136c-5.207,0-8.678-3.471-8.678-8.678V8.678C247.322,3.471,250.793,0,256,0
		s8.678,3.471,8.678,8.678v86.78C264.678,100.664,261.207,104.136,256,104.136"/>
	<path style="fill:#71C386;" d="M325.424,104.136c-2.603,0-4.339-0.868-6.075-2.603c-3.471-3.471-3.471-8.678,0-12.149
		l69.424-69.424c3.471-3.471,8.678-3.471,12.149,0c3.471,3.471,3.471,8.678,0,12.149l-69.424,69.424
		C329.763,103.268,328.027,104.136,325.424,104.136"/>
	<path style="fill:#71C386;" d="M195.254,104.136c-2.603,0-4.339-0.868-6.075-2.603l-69.424-69.424
		c-3.471-3.471-3.471-8.678,0-12.149s8.678-3.471,12.149,0l69.424,69.424c3.471,3.471,3.471,8.678,0,12.149
		C199.593,103.268,197.858,104.136,195.254,104.136"/>
</g>
</svg>