<svg id="Layer" xmlns="http://www.w3.org/2000/svg" xmlns:xlink="http://www.w3.org/1999/xlink" viewBox="0 0 335.99 235.19"><defs><style>.cls-1,.cls-3{fill:#f9d59c;}.cls-1,.cls-2,.cls-22{opacity:0.4;}.cls-4{fill:#c8917b;}.cls-5{fill:#8d5f51;}.cls-17,.cls-6{fill:#00a69b;}.cls-7{fill:#74c2bd;}.cls-8{fill:url(#linear-gradient);}.cls-9{fill:url(#linear-gradient-2);}.cls-10{fill:url(#linear-gradient-3);}.cls-11,.cls-14,.cls-19,.cls-22{fill:#fff;}.cls-12{fill:#cfd0d2;}.cls-13{fill:#5cbfb3;}.cls-14{opacity:0.2;}.cls-15{fill:#a5a8aa;}.cls-16{fill:#78a4d7;}.cls-16,.cls-17,.cls-18,.cls-19{fill-rule:evenodd;}.cls-18,.cls-20{fill:#1860aa;}.cls-21{fill:#ace3f9;}.cls-23{opacity:0.3;fill:url(#Névtelen_színátmenet_11);}.cls-24{fill:#292949;}.cls-25{fill:#3b69a2;}.cls-26{fill:#999;}.cls-27{opacity:0.5;}.cls-28{fill:#000100;}.cls-29{fill:#1e2b5c;}</style><linearGradient id="linear-gradient" x1="122.76" y1="127.19" x2="122.76" y2="121.33" gradientUnits="userSpaceOnUse"><stop offset="0.25" stop-color="#fff" stop-opacity="0"/><stop offset="1" stop-color="#fff" stop-opacity="0.4"/></linearGradient><linearGradient id="linear-gradient-2" x1="212.89" y1="127.19" x2="212.89" y2="121.33" xlink:href="#linear-gradient"/><linearGradient id="linear-gradient-3" x1="168.02" y1="161.74" x2="168.02" y2="155.88" xlink:href="#linear-gradient"/><linearGradient id="Névtelen_színátmenet_11" x1="211.32" y1="141.64" x2="217.28" y2="141.64" gradientUnits="userSpaceOnUse"><stop offset="0" stop-color="#1e114b" stop-opacity="0.3"/><stop offset="0.42" stop-color="#201553" stop-opacity="0.25"/><stop offset="0.84" stop-color="#242169" stop-opacity="0.09"/><stop offset="1" stop-color="#272776" stop-opacity="0"/></linearGradient></defs><title>eezy_23</title><rect class="cls-1" x="13.87" y="17.15" width="309.94" height="202.22" rx="13.31"/><g class="cls-2"><path class="cls-3" d="M80.33,42.79A24.46,24.46,0,0,0,55.87,67.25V146.5h48.92V67.25A24.46,24.46,0,0,0,80.33,42.79Zm1.2,3.66A21.62,21.62,0,0,1,102,68V83.46H81.53ZM58.7,68A21.63,21.63,0,0,1,79.14,46.45v37H58.7Zm0,75.9V86.19H79.14v57.75Zm22.83,0V86.19H102v57.75Z"/></g><g class="cls-2"><path class="cls-3" d="M255.3,42.79a24.46,24.46,0,0,0-24.46,24.46V146.5h48.92V67.25A24.46,24.46,0,0,0,255.3,42.79Zm1.2,3.66A21.62,21.62,0,0,1,276.93,68V83.46H256.5ZM233.67,68a21.63,21.63,0,0,1,20.44-21.59v37H233.67Zm0,75.9V86.19h20.44v57.75Zm22.83,0V86.19h20.43v57.75Z"/></g><polygon class="cls-1" points="13.88 70.75 13.88 61.9 22.73 61.9 31.59 61.9 31.59 70.75 22.73 70.75 13.88 70.75"/><rect class="cls-1" x="13.87" y="32.16" width="8.86" height="8.86"/><rect class="cls-1" x="13.87" y="52.04" width="8.86" height="8.86"/><polygon class="cls-1" points="13.88 187.2 13.88 178.34 22.73 178.34 31.59 178.34 31.59 187.2 22.73 187.2 13.88 187.2"/><polygon class="cls-1" points="13.88 131.29 13.88 122.43 22.73 122.43 31.59 122.43 31.59 131.29 22.73 131.29 13.88 131.29"/><rect class="cls-1" x="13.87" y="188.37" width="8.86" height="8.86"/><rect class="cls-1" x="13.87" y="168.24" width="8.86" height="8.86"/><rect class="cls-1" x="13.87" y="132.52" width="8.86" height="8.86"/><rect class="cls-1" x="13.87" y="112.43" width="8.86" height="8.86"/><polygon class="cls-1" points="323.81 158.63 323.81 167.49 314.95 167.49 306.09 167.49 306.09 158.63 314.95 158.63 323.81 158.63"/><rect class="cls-1" x="314.95" y="188.37" width="8.86" height="8.86"/><rect class="cls-1" x="314.95" y="168.49" width="8.86" height="8.86"/><polygon class="cls-1" points="323.81 42.19 323.81 51.05 314.95 51.05 306.09 51.05 306.09 42.19 314.95 42.19 323.81 42.19"/><polygon class="cls-1" points="323.81 98.1 323.81 106.96 314.95 106.96 306.09 106.96 306.09 98.1 314.95 98.1 323.81 98.1"/><rect class="cls-1" x="314.95" y="32.16" width="8.86" height="8.86"/><rect class="cls-1" x="314.95" y="52.29" width="8.86" height="8.86"/><rect class="cls-1" x="314.95" y="88.01" width="8.86" height="8.86"/><rect class="cls-1" x="314.95" y="108.1" width="8.86" height="8.86"/><path class="cls-4" d="M13.87,205.51v.55a13.36,13.36,0,0,0,13.32,13.31H310.5a13.35,13.35,0,0,0,13.31-13.31v-.55Z"/><path class="cls-5" d="M15.52,212.44a13.35,13.35,0,0,0,11.67,6.93H310.5a13.35,13.35,0,0,0,11.67-6.93Z"/><rect class="cls-6" x="79.17" y="127.19" width="177.71" height="51.89"/><path class="cls-7" d="M159.25,121.33h-73a7.08,7.08,0,0,0-7.09,7.08v33.33h87.17V128.41A7.08,7.08,0,0,0,159.25,121.33Z"/><path class="cls-8" d="M79.28,127.19h86.95a7.08,7.08,0,0,0-7-5.86h-73A7.09,7.09,0,0,0,79.28,127.19Z"/><path class="cls-7" d="M249.79,121.33H176a7.09,7.09,0,0,0-7.09,7.08v33.33h88V128.41A7.09,7.09,0,0,0,249.79,121.33Z"/><path class="cls-9" d="M169,127.19h87.75a7.08,7.08,0,0,0-7-5.86H176A7.08,7.08,0,0,0,169,127.19Z"/><path class="cls-7" d="M254.45,155.88H81.6A7.08,7.08,0,0,0,74.51,163v16.22h187V163A7.09,7.09,0,0,0,254.45,155.88Z"/><path class="cls-10" d="M254.45,155.88H81.6a7.09,7.09,0,0,0-7,5.86h186.8A7.08,7.08,0,0,0,254.45,155.88Z"/><rect class="cls-4" x="74.51" y="179.18" width="187.03" height="8.62"/><rect class="cls-5" x="91.17" y="187.84" width="4.71" height="17.71"/><rect class="cls-5" x="74.45" y="187.84" width="4.71" height="17.71"/><rect class="cls-5" x="256.8" y="187.84" width="4.71" height="17.71"/><rect class="cls-5" x="239.37" y="187.84" width="4.71" height="17.71"/><rect class="cls-11" x="84" y="187.76" width="167.91" height="4.88"/><rect class="cls-12" x="101.16" y="192.81" width="4.49" height="19.7"/><rect class="cls-12" x="229.23" y="192.81" width="4.49" height="19.7"/><g id="bamboo"><rect class="cls-13" x="45.35" y="167.81" width="2.2" height="28.85"/><rect class="cls-6" x="44.78" y="171.85" width="3.54" height="0.78"/><rect class="cls-6" x="44.78" y="182.23" width="3.54" height="0.78"/><rect class="cls-6" x="44.78" y="192.15" width="3.54" height="0.78"/><rect class="cls-13" x="54.06" y="167.81" width="2.2" height="28.85"/><rect class="cls-6" x="53.5" y="171.85" width="3.54" height="0.78"/><rect class="cls-6" x="53.5" y="182.23" width="3.54" height="0.78"/><rect class="cls-6" x="53.5" y="192.15" width="3.54" height="0.78"/><rect class="cls-13" x="49.88" y="167.81" width="2.2" height="28.85"/><rect class="cls-6" x="49.32" y="176.24" width="3.54" height="0.78"/><rect class="cls-6" x="49.32" y="187.51" width="3.54" height="0.78"/><path class="cls-13" d="M60.23,159.29c-5.91,1.87-5.57,7.34-5.22,9.26h0a7,7,0,0,0,5.22-9.26"/><path class="cls-13" d="M58.08,157.41c-5.91,3-4.61,8.72-3.9,10.69h0a7.53,7.53,0,0,0,3.9-10.69"/><path class="cls-14" d="M58.08,157.41c-5.91,3-4.61,8.72-3.9,10.69h0a7.53,7.53,0,0,0,3.9-10.69"/><path class="cls-13" d="M41.74,159.29c5.9,1.87,5.57,7.34,5.22,9.26h0a7,7,0,0,1-5.22-9.26"/><path class="cls-13" d="M43.89,157.41c5.91,3,4.61,8.72,3.9,10.69h0a7.53,7.53,0,0,1-3.9-10.69"/><path class="cls-14" d="M43.89,157.41c5.91,3,4.61,8.72,3.9,10.69h0a7.53,7.53,0,0,1-3.9-10.69"/><path class="cls-6" d="M46.85,156.73c6.54,3.33,5.09,9.65,4.31,11.82h0a8.32,8.32,0,0,1-4.31-11.82"/><path class="cls-6" d="M55.48,156.73c-6.54,3.33-5.1,9.65-4.31,11.82h0a8.32,8.32,0,0,0,4.31-11.82"/><path class="cls-12" d="M60.36,196a9.54,9.54,0,1,1-19.07,0Z"/><rect class="cls-15" x="41.55" y="202.08" width="18.37" height="3.58"/></g><path class="cls-11" d="M168.49,41.9h-.14V16.31h-.9V41.9h-.19c-15.21.5-27.46,16.26-27.46,35.58a43.21,43.21,0,0,0,3.42,17l.1.25,23.94.06h1.05l4.93.07v0l3.52,0v0l4.68,0h11.17l.11-.25a43.26,43.26,0,0,0,3.47-17.13C196.19,58.07,183.81,42.24,168.49,41.9ZM172.42,94h-4.07V42.73c2,.93,4.7,13.22,4.7,34.76C173.05,83.27,172.83,89,172.42,94Zm-5,0-3.66,0c-.42-5-.63-10.73-.63-16.49,0-20.12,2.35-32.16,4.29-34.43Zm-1-50.81c-2.72,4.5-4.16,19.77-4.16,34.28,0,5.76.22,11.46.63,16.51l-3,0a117.17,117.17,0,0,1-1.12-16.48C158.77,59,162.5,46,166.43,43.21Zm6.88,50.84c.41-5.07.63-10.78.63-16.56,0-14-1.35-28.78-3.9-33.81,3.71,3.57,7.07,16.26,7.07,33.81A116.69,116.69,0,0,1,176,94.05ZM157.88,77.49A117.46,117.46,0,0,0,159,94l-3.32,0A77.17,77.17,0,0,1,154,77.49c0-16.1,4.49-29.67,10.57-33.65C160.32,49,157.88,63.42,157.88,77.49Zm19,16.56A118.29,118.29,0,0,0,178,77.49c0-14.64-2.64-29.7-7.19-34.23,6.61,3,11.63,17.2,11.63,34.23a76.65,76.65,0,0,1-1.73,16.57Zm-23.8-16.56A77.57,77.57,0,0,0,154.79,94l-3.91,0a57.78,57.78,0,0,1-2.32-16.48c0-16.39,6.35-30.16,14.87-33.85C157.36,48.25,153.08,61.47,153.08,77.49Zm30.27,0c0-15.44-4-28.29-9.71-33.32,8,4.34,13.79,17.64,13.79,33.32a57.79,57.79,0,0,1-2.36,16.59h-3.45A77.59,77.59,0,0,0,183.35,77.49Zm-35.68,0A58.67,58.67,0,0,0,150,94h-3a48.26,48.26,0,0,1-2.83-16.48C144.14,62.07,151,49,160.5,44.4,153,49.64,147.67,62.49,147.67,77.49ZM186,94.08a58.24,58.24,0,0,0,2.34-16.59c0-14.7-5.11-27.35-12.39-32.77,9.16,4.83,15.73,17.7,15.73,32.77a48.11,48.11,0,0,1-2.87,16.59ZM140.69,77.49c0-14,6.56-26.17,16-31.67-8,5.91-13.41,17.89-13.41,31.67A48.92,48.92,0,0,0,146.05,94h-2.11A42.79,42.79,0,0,1,140.69,77.49ZM192,94.09h-2.28a48.8,48.8,0,0,0,2.84-16.6c0-14.16-5.75-26.41-14.05-32.14,9.85,5.26,16.79,17.68,16.79,32.14A42.65,42.65,0,0,1,192,94.09Z"/><polygon class="cls-16" points="234.06 187.76 234.06 182.26 199.65 182.26 199.65 187.76 234.06 187.76 234.06 187.76"/><polygon class="cls-17" points="234.06 182.26 234.06 176.61 199.71 176.61 199.71 182.26 234.06 182.26 234.06 182.26"/><polygon class="cls-18" points="234.06 176.61 234.06 170.96 199.71 170.96 199.71 176.61 234.06 176.61 234.06 176.61"/><polygon class="cls-19" points="206.29 176.61 206.29 182.26 201.46 182.26 201.46 176.61 206.29 176.61 206.29 176.61"/><polygon class="cls-19" points="207.36 187.76 207.36 182.26 206.29 182.26 206.29 187.76 207.36 187.76 207.36 187.76"/><polygon class="cls-19" points="209.84 187.76 209.84 182.26 208.77 182.26 208.77 187.76 209.84 187.76 209.84 187.76"/><polygon class="cls-19" points="228.72 187.76 228.72 182.26 227.65 182.26 227.65 187.76 228.72 187.76 228.72 187.76"/><polygon class="cls-19" points="226.33 187.76 226.33 182.26 225.26 182.26 225.26 187.76 226.33 187.76 226.33 187.76"/><rect class="cls-12" x="216.78" y="162.31" width="1.45" height="22.43" transform="translate(43.98 391.03) rotate(-90)"/><path class="cls-20" d="M131,152.25a.43.43,0,0,1-.58.16l-1.23-.79h0L127,150.18l-1-.59c-.58-.28-1.79-.51-1.81.76v1.12l0,20.28h-.92l0-21.54a2.09,2.09,0,0,1,0-.5,1.78,1.78,0,0,1,2.09-1.41,1.56,1.56,0,0,1,.53.16l.09,0,.26.17,3.45,2.2,1.24.79A.41.41,0,0,1,131,152.25Z"/><path class="cls-11" d="M117.86,187.77a.67.67,0,0,1-.63-.66l-2.4-28.4a.29.29,0,0,1,.06-.22.24.24,0,0,1,.18-.1h17.06a.22.22,0,0,1,.18.1.34.34,0,0,1,.07.22L130,187.11a.67.67,0,0,1-.63.66Z"/><path class="cls-21" d="M116.47,164.18l1.84,21.73a.56.56,0,0,0,.52.55h9.54a.57.57,0,0,0,.53-.55l1.84-21.73Z"/><path class="cls-22" d="M120.48,185.91l-1.84-21.73h-2.17l1.84,21.73a.56.56,0,0,0,.52.55H121A.56.56,0,0,1,120.48,185.91Z"/><path class="cls-11" d="M213.12,127.5a108.27,108.27,0,0,1-32.94,0,56,56,0,0,1,0,28.33h32.94A56,56,0,0,1,213.12,127.5Z"/><path class="cls-23" d="M217.28,127.56v28.22s-2.44-.21-4.25-.31a60.14,60.14,0,0,1-1.71-14.05,55.69,55.69,0,0,1,1.8-13.92Z"/><path id="starfish" class="cls-1" d="M192.35,148.16c-1-.72,1.74-3.58,1.35-4.76s-4.28-1.86-3.9-3,3.94.54,4.94-.19.45-4.65,1.69-4.65.7,3.92,1.7,4.64,4.56-1,4.94.17-3.51,1.87-3.89,3,2.38,4,1.38,4.75-2.87-2.75-4.11-2.75-3.09,3.5-4.1,2.77"/><path class="cls-24" d="M176.71,173.8H178a.46.46,0,0,1,.46.46v.11a0,0,0,0,1,0,0h-2.17a0,0,0,0,1,0,0v-.11A.46.46,0,0,1,176.71,173.8Z"/><path class="cls-12" d="M173.34,174.36H191a.89.89,0,0,1,.89.89v12.07a.46.46,0,0,1-.46.46H172.91a.46.46,0,0,1-.46-.46V175.25A.89.89,0,0,1,173.34,174.36Z"/><rect class="cls-25" x="172.46" y="177.2" width="19.38" height="9.51"/><rect class="cls-11" x="173.23" y="174.98" width="2.61" height="0.97" rx="0.49"/><ellipse class="cls-26" cx="176.7" cy="175.46" rx="0.44" ry="0.43"/><ellipse class="cls-26" cx="177.92" cy="175.46" rx="0.44" ry="0.43"/><ellipse class="cls-26" cx="182.25" cy="181.76" rx="4.77" ry="4.58"/><ellipse class="cls-24" cx="182.25" cy="181.76" rx="4.11" ry="3.95"/><path class="cls-11" d="M186.33,179a5,5,0,0,0-2.36-1.74,5.25,5.25,0,0,0-3.09-.11,5,5,0,0,0-2.49,1.57,4.64,4.64,0,0,0-.43,5.53,4.9,4.9,0,0,0,2.23,1.89,5.12,5.12,0,0,0,5.67-1,4.7,4.7,0,0,0,1.33-2.58,4.52,4.52,0,0,0,.06-.74A4.63,4.63,0,0,0,186.33,179Zm-.18,5.42a4.82,4.82,0,0,1-2.26,1.66,5,5,0,0,1-2.95.1,4.84,4.84,0,0,1-2.38-1.49,4.47,4.47,0,0,1-.4-5.29,4.78,4.78,0,0,1,2.11-1.81,5,5,0,0,1,2.93-.32,4.72,4.72,0,0,1,3.77,3.79,4.17,4.17,0,0,1,.06.71A4.53,4.53,0,0,1,186.15,184.41Z"/><g class="cls-27"><path class="cls-28" d="M187.44,180.37a5.79,5.79,0,0,0-.29-.68,4.9,4.9,0,0,0-2.11-2.07,5.08,5.08,0,0,0-1.1-.38h0a5,5,0,0,1,2.36,1.74,4.63,4.63,0,0,1,.92,2.77,4.52,4.52,0,0,1-.06.74,4.7,4.7,0,0,1-1.33,2.58,5.18,5.18,0,0,1-2.62,1.39,5.87,5.87,0,0,1-1.11.09,5.09,5.09,0,0,0,.78,0,5.17,5.17,0,0,0,2.87-1,4.78,4.78,0,0,0,1.67-2.35A4.58,4.58,0,0,0,187.44,180.37Z"/></g><ellipse class="cls-29" cx="182.25" cy="181.76" rx="2.65" ry="2.55"/><path class="cls-1" d="M289.46,164.92h-8a2.53,2.53,0,0,0-2.52,2.51v8a2.53,2.53,0,0,0,2.52,2.52h8a2.52,2.52,0,0,0,2.52-2.52v-8A2.52,2.52,0,0,0,289.46,164.92Zm-4,10.26a3.75,3.75,0,1,1,3.75-3.75A3.74,3.74,0,0,1,285.46,175.18Z"/><path class="cls-1" d="M289.46,179.84h-8a2.53,2.53,0,0,0-2.52,2.52v8a2.53,2.53,0,0,0,2.52,2.51h8a2.52,2.52,0,0,0,2.52-2.51v-8A2.52,2.52,0,0,0,289.46,179.84Zm-4,10.27a3.75,3.75,0,1,1,3.75-3.75A3.75,3.75,0,0,1,285.46,190.11Z"/></svg>