<?xml version="1.0" encoding="utf-8"?>
<!-- Generator: Adobe Illustrator 19.0.0, SVG Export Plug-In . SVG Version: 6.00 Build 0)  -->
<svg xmlns="http://www.w3.org/2000/svg" xmlns:xlink="http://www.w3.org/1999/xlink" version="1.1" x="0px" y="0px" viewBox="0 0 1400 980" style="enable-background:new 0 0 1400 980;" xml:space="preserve">
<style type="text/css">
	.st0{fill:#FFF8A1;}
	.st1{opacity:0.43;}
	.st2{fill:#00A9A3;}
	.st3{fill:#69C4A3;}
	.st4{opacity:0.18;}
	.st5{fill:#414042;}
	.st6{fill:#594A42;}
	.st7{fill:#A2DADE;}
	.st8{fill:#887166;}
	.st9{fill:#D9EEE9;}
	.st10{fill:#F26122;}
	.st11{fill:#32BCAD;}
	.st12{fill:#FEC00F;}
	.st13{fill:#FAA41A;}
	.st14{opacity:0.22;}
</style>
<g id="_x31_">
	
	<g class="st1">
		<g>
			<rect x="-15.8" y="-52.5" class="st2" width="179.3" height="181.3"/>
			<rect x="-15.8" y="128.8" class="st3" width="179.3" height="181.3"/>
			<rect x="-15.8" y="310.8" class="st2" width="179.3" height="181.3"/>
			<rect x="-15.8" y="492.1" class="st3" width="179.3" height="181.3"/>
			<rect x="-15.8" y="674.1" class="st2" width="179.3" height="181.3"/>
			<rect x="-15.8" y="855.4" class="st3" width="179.3" height="181.3"/>
			<rect x="163.4" y="-52.5" class="st3" width="179.3" height="181.3"/>
			<rect x="163.4" y="128.8" class="st2" width="179.3" height="181.3"/>
			<rect x="163.4" y="310.8" class="st3" width="179.3" height="181.3"/>
			<rect x="163.4" y="492.1" class="st2" width="179.3" height="181.3"/>
			<rect x="163.4" y="674.1" class="st3" width="179.3" height="181.3"/>
			<rect x="163.4" y="855.4" class="st2" width="179.3" height="181.3"/>
		</g>
		<g>
			<rect x="341.9" y="-52.5" class="st2" width="179.3" height="181.3"/>
			<rect x="341.9" y="128.8" class="st3" width="179.3" height="181.3"/>
			<rect x="341.9" y="310.8" class="st2" width="179.3" height="181.3"/>
			<rect x="341.9" y="492.1" class="st3" width="179.3" height="181.3"/>
			<rect x="341.9" y="674.1" class="st2" width="179.3" height="181.3"/>
			<rect x="341.9" y="855.4" class="st3" width="179.3" height="181.3"/>
			<rect x="521.1" y="-52.5" class="st3" width="179.3" height="181.3"/>
			<rect x="521.1" y="128.8" class="st2" width="179.3" height="181.3"/>
			<rect x="521.1" y="310.8" class="st3" width="179.3" height="181.3"/>
			<rect x="521.1" y="492.1" class="st2" width="179.3" height="181.3"/>
			<rect x="521.1" y="674.1" class="st3" width="179.3" height="181.3"/>
			<rect x="521.1" y="855.4" class="st2" width="179.3" height="181.3"/>
		</g>
		<g>
			<rect x="699.6" y="-52.5" class="st2" width="179.3" height="181.3"/>
			<rect x="699.6" y="128.8" class="st3" width="179.3" height="181.3"/>
			<rect x="699.6" y="310.8" class="st2" width="179.3" height="181.3"/>
			<rect x="699.6" y="492.1" class="st3" width="179.3" height="181.3"/>
			<rect x="699.6" y="674.1" class="st2" width="179.3" height="181.3"/>
			<rect x="699.6" y="855.4" class="st3" width="179.3" height="181.3"/>
			<rect x="878.9" y="-52.5" class="st3" width="179.3" height="181.3"/>
			<rect x="878.9" y="128.8" class="st2" width="179.3" height="181.3"/>
			<rect x="878.9" y="310.8" class="st3" width="179.3" height="181.3"/>
			<rect x="878.9" y="492.1" class="st2" width="179.3" height="181.3"/>
			<rect x="878.9" y="674.1" class="st3" width="179.3" height="181.3"/>
			<rect x="878.9" y="855.4" class="st2" width="179.3" height="181.3"/>
		</g>
		<g>
			<rect x="1057.3" y="-52.5" class="st2" width="179.3" height="181.3"/>
			<rect x="1057.3" y="128.8" class="st3" width="179.3" height="181.3"/>
			<rect x="1057.3" y="310.8" class="st2" width="179.3" height="181.3"/>
			<rect x="1057.3" y="492.1" class="st3" width="179.3" height="181.3"/>
			<rect x="1057.3" y="674.1" class="st2" width="179.3" height="181.3"/>
			<rect x="1057.3" y="855.4" class="st3" width="179.3" height="181.3"/>
			<rect x="1236.6" y="-52.5" class="st3" width="179.3" height="181.3"/>
			<rect x="1236.6" y="128.8" class="st2" width="179.3" height="181.3"/>
			<rect x="1236.6" y="310.8" class="st3" width="179.3" height="181.3"/>
			<rect x="1236.6" y="492.1" class="st2" width="179.3" height="181.3"/>
			<rect x="1236.6" y="674.1" class="st3" width="179.3" height="181.3"/>
			<rect x="1236.6" y="855.4" class="st2" width="179.3" height="181.3"/>
		</g>
	</g>
	<g class="st4">
		<rect x="47.8" y="82.4" class="st5" width="925.7" height="786.4"/>
		<path class="st5" d="M1351.5,609.7h-122.7v-14.1c0-0.4-0.1-0.7-0.1-1.1c9.8-3.9,16.7-13.4,16.7-24.6c0-14.7-11.9-26.5-26.5-26.5    s-26.5,11.9-26.5,26.5c0,11.2,6.9,20.7,16.7,24.6c0,0.4-0.1,0.7-0.1,1.1v24c0,5.5,4.5,9.9,9.9,9.9h132.7c6.2,0,20.7,0,20.7,28.2    c0,23.5-7.9,28.2-20.7,28.2h-6.4c-2.2-9.5-6.2-15.1-13.5-14.1h-39.4c-59.4,0-167.8,0-192.8,0c-18.9,0-27.3,5.1-31,14.1h-22    c-14,0-20.4-17.9-20.4-18.1c-1.7-5.2-7.4-8-12.6-6.3c-5.2,1.7-8,7.4-6.3,12.6c0.4,1.3,10.9,31.7,39.3,31.7h19.1    c-0.1,3.1,0,6.5,0,10c0,26.5,0,219.6,0,219.6h244.6h3.9c0,0,0-33.5,0-75.2h33.6c0,0,0-110.7,0-139.3c0-5.3-0.1-10.4-0.3-15.1h4.2    c18.5,0,40.6-8.3,40.6-48.1C1392.2,627.2,1377.4,609.7,1351.5,609.7z M1204.5,569.9c0-7.9,6.4-14.4,14.4-14.4    c7.9,0,14.4,6.4,14.4,14.4c0,7.9-6.4,14.4-14.4,14.4C1211,584.2,1204.5,577.8,1204.5,569.9z"/>
		<circle class="st5" cx="1218.4" cy="569.6" r="7.7"/>
		<path class="st5" d="M1043.9,213.3H1324c14.9,0,27.1-12.2,27.1-27.1v-22.3c0-14.9-12.2-27.1-27.1-27.1h-280.1    c-14.9,0-27.1,12.2-27.1,27.1v22.3C1016.9,201.1,1029,213.3,1043.9,213.3z"/>
		<path class="st5" d="M1377.4,361.5h-44.5c10.5-3.7,18.1-13.8,18.1-25.5v-22.3c0-10.8-6.4-20.1-15.6-24.5    c9.2-4.3,15.6-13.7,15.6-24.5v-22.3c0-14.9-12.2-27.1-27.1-27.1h-280.1c-14.9,0-27.1,12.2-27.1,27.1v22.3    c0,10.8,6.4,20.1,15.6,24.5c-9.2,4.3-15.6,13.7-15.6,24.5V336c0,11.7,7.6,21.8,18.1,25.5h-44.5v44h386.9V361.5z"/>
	</g>
	<g>
		<rect x="38.8" y="98.9" class="st6" width="925.7" height="786.4"/>
		<path class="st7" d="M99,151.8h379.1c2.1,0,3.8,1.7,3.8,3.8v673c0,2.1-1.7,3.8-3.8,3.8H99c-2.1,0-3.8-1.7-3.8-3.8v-673    C95.2,153.5,96.9,151.8,99,151.8z"/>
		<rect x="525.4" y="151.8" class="st8" width="386.7" height="203"/>
		<rect x="525.4" y="390.6" class="st8" width="386.7" height="203"/>
		<rect x="525.4" y="629.4" class="st8" width="386.7" height="203"/>
		<polygon class="st9" points="95.2,400 326.1,151.8 276.5,151.8 95.2,346.7   "/>
		<polygon class="st9" points="95.2,269.8 205,151.8 171.5,151.8 95.2,233.8   "/>
		<rect x="576.8" y="703.4" class="st6" width="52.4" height="40"/>
		<rect x="826.2" y="415.4" class="st6" width="30.4" height="19.5"/>
		<rect x="809.2" y="327.8" class="st6" width="36.4" height="27.1"/>
		<polygon class="st10" points="629.2,743.4 603.6,743.4 602.2,743.4 576.6,743.4 546.7,772.7 546.7,832.4 602.2,832.4 603.6,832.4     659.1,832.4 659.1,772.7   "/>
		<polygon class="st10" points="831.8,215.6 823,215.6 793.1,215.6 802.7,327.8 823,327.8 831.8,327.8 852,327.8 861.7,215.6   "/>
		<polygon class="st11" points="867.5,458.5 853.9,449.6 853.9,434.9 828.8,434.9 828.8,450.2 815.3,459.1 815.3,593.6 845.4,593.6     845.4,593 867.5,593   "/>
		<rect x="751.8" y="415.4" class="st6" width="30.4" height="19.5"/>
		<polygon class="st12" points="793.1,458.5 779.5,449.6 779.5,434.9 754.4,434.9 754.4,450.2 740.8,459.1 740.8,593.6 770.9,593.6     770.9,593 793.1,593   "/>
		<rect x="677.3" y="415.4" class="st6" width="30.4" height="19.5"/>
		<polygon class="st10" points="718.6,458.5 705.1,449.6 705.1,434.9 680,434.9 680,450.2 666.4,459.1 666.4,593.6 696.5,593.6     696.5,593 718.6,593   "/>
		<rect x="602.9" y="415.4" class="st6" width="30.4" height="19.5"/>
		<polygon class="st11" points="644.2,458.5 630.6,449.6 630.6,434.9 605.6,434.9 605.6,450.2 592,459.1 592,593.6 622.1,593.6     622.1,593 644.2,593   "/>
		<polygon class="st6" points="837.1,681 846.1,681 846.1,659.9 869,659.9 869,652.4 837.1,652.4   "/>
		<rect x="822.8" y="677" class="st11" width="37.1" height="15"/>
		<polygon class="st12" points="859.9,692 841.4,692 822.8,692 799.3,712.1 799.3,815.4 809.3,832.4 841.4,832.4 873.5,832.4     883.5,815.4 883.5,712.1   "/>
		<rect x="706.5" y="664.9" class="st6" width="41" height="17.3"/>
		<path class="st11" d="M741.8,728.2v-45.9H727h-14.7v45.9c0,0-38.4,6.1-38.4,47.9s37.8,56.3,37.8,56.3H727h15.3    c0,0,37.8-14.4,37.8-56.3S741.8,728.2,741.8,728.2z"/>
		<rect x="666.4" y="288.9" class="st12" width="88.3" height="65.5"/>
		<path class="st6" d="M710.3,251.1c-46.4,0-43.9,37.8-43.9,37.8h43.9h43.9C754.3,288.9,756.7,251.1,710.3,251.1z"/>
	</g>
	<g>
		<g>
			<path class="st13" d="M1322.7,688.3c14.1-1.9,16,20.5,16,49.1c0,28.6,0,139.3,0,139.3h-55.3V688.3H1322.7z"/>
			<path class="st6" d="M1342.6,626.2h-122.7v-14.1c0-0.4-0.1-0.7-0.1-1.1c9.8-3.9,16.7-13.4,16.7-24.6c0-14.7-11.9-26.5-26.5-26.5     c-14.7,0-26.5,11.9-26.5,26.5c0,11.2,6.9,20.7,16.7,24.6c0,0.4-0.1,0.7-0.1,1.1v24c0,5.5,4.5,9.9,9.9,9.9h132.7     c6.2,0,20.7,0,20.7,28.2c0,23.5-7.9,28.2-20.7,28.2h-305.1c-14,0-20.4-17.9-20.4-18.1c-1.7-5.2-7.4-8-12.6-6.3     c-5.2,1.7-8,7.4-6.3,12.6c0.4,1.3,10.9,31.7,39.3,31.7h305.1c18.5,0,40.6-8.3,40.6-48.1C1383.2,643.7,1368.4,626.2,1342.6,626.2z      M1195.5,586.4c0-7.9,6.4-14.4,14.4-14.4c7.9,0,14.4,6.4,14.4,14.4c0,7.9-6.4,14.4-14.4,14.4     C1202,600.7,1195.5,594.3,1195.5,586.4z"/>
			<path class="st12" d="M1301.1,951.9h-244.6c0,0,0-193.1,0-219.6c0-26.5-0.8-43.9,34-43.9c34.8,0,232.1,0,232.1,0     s-17.6,3.1-17.6,33.6s0,230,0,230H1301.1z"/>
		</g>
		<circle class="st6" cx="1209.4" cy="586.1" r="7.7"/>
	</g>
	<path class="st11" d="M1034.9,303.1H1315c14.9,0,27.1,12.2,27.1,27.1v22.3c0,14.9-12.2,27.1-27.1,27.1h-280.1   c-14.9,0-27.1-12.2-27.1-27.1v-22.3C1007.9,315.2,1020,303.1,1034.9,303.1z"/>
	<path class="st12" d="M1034.9,231.8H1315c14.9,0,27.1,12.2,27.1,27.1v22.3c0,14.9-12.2,27.1-27.1,27.1h-280.1   c-14.9,0-27.1-12.2-27.1-27.1v-22.3C1007.9,244,1020,231.8,1034.9,231.8z"/>
	<path class="st10" d="M1034.9,153.4H1315c14.9,0,27.1,12.2,27.1,27.1v22.3c0,14.9-12.2,27.1-27.1,27.1h-280.1   c-14.9,0-27.1-12.2-27.1-27.1v-22.3C1007.9,165.6,1020,153.4,1034.9,153.4z"/>
	<rect x="981.5" y="378" class="st6" width="386.9" height="44"/>
</g>
<g id="Designed_by_Vecteezy">
	<g class="st14">
		<g>
			<g>
				<path d="M732.3,937.7c0.8,0,1.6,0.7,1.6,0.7L720,968.2c-1.5,0-5.2,0.2-6.1,0.2c-0.8,0-1.6-0.7-1.6-0.7l-4.8-29.8      c2.9,0,6.5-0.2,7.6-0.2c0.8,0,1.6,0.7,1.6,0.7l1.5,14.6c0.1,1.3,0.1,3,0.1,4.8c0.5-2,1-3.9,1.5-5.2l5.8-14.7      C728.1,937.9,731.3,937.7,732.3,937.7L732.3,937.7z"/>
			</g>
			<g>
				<path d="M746.6,952.4c0,3.2-1.8,5.4-6.3,6.3l-4.7,1c0.4,2,1.6,3,3.8,3c2.6,0,4.4-2,4.4-2s1.3,0.7,1.3,2.3c0,2.7-4.1,5.6-9,5.6      c-4.9,0-8.1-3.1-8.1-8.3c0-6,4.3-14.2,11.9-14.2C744,946.1,746.6,948.6,746.6,952.4L746.6,952.4z M738.6,955.5      c1-0.3,1.3-1.2,1.3-2.1c0-0.9-0.3-2.2-1.3-2.2c-1.9,0-2.7,3-3,5.3L738.6,955.5z"/>
			</g>
			<g>
				<path d="M759.4,946.1c3.8,0,6.7,2,6.7,4.7c0,3.3-4,4.5-4,4.5s-1.2-3.6-3.9-3.6c-1.8,0-2.9,1.8-2.9,5.8c0,3.6,1,5.2,3.3,5.2      c2.4,0,3.9-1.6,3.9-1.6s1.3,0.7,1.3,2.2c0,2.6-4,5.3-8.6,5.3c-4.9,0-8-3.1-8-8.2C747.3,954.3,751.7,946.1,759.4,946.1      L759.4,946.1z"/>
			</g>
			<g>
				<path d="M777.8,941.3c0.9,0,1.5,0.7,1.5,0.7l-0.7,4.5h4.8l-1.1,3.5c-0.4,1.1-0.9,1.7-2,1.7h-2.5l-1.4,8.9      c-0.2,1.4,0.1,2.1,1.1,2.1c0.9,0,1.8-0.5,1.8-0.5s1.3,0.7,1.3,2.2c0,2.2-3.1,4.3-7,4.3c-4.1,0-5.8-2.5-5.1-7l1.6-9.9h-2.6      l1.1-3.6c0.3-0.9,1.1-1.6,2-1.6h1.3l1.5-4.2C775.2,941.9,777,941.3,777.8,941.3L777.8,941.3z"/>
			</g>
			<g>
				<path d="M801.2,952.4c0,3.2-1.8,5.4-6.3,6.3l-4.7,1c0.4,2,1.6,3,3.8,3c2.6,0,4.4-2,4.4-2s1.3,0.7,1.3,2.3c0,2.7-4.1,5.6-9,5.6      c-4.9,0-8.1-3.1-8.1-8.3c0-6,4.3-14.2,11.9-14.2C798.6,946.1,801.2,948.6,801.2,952.4L801.2,952.4z M793.2,955.5      c1-0.3,1.3-1.2,1.3-2.1c0-0.9-0.3-2.2-1.3-2.2c-1.9,0-2.7,3-3,5.3L793.2,955.5z"/>
			</g>
			<g>
				<path d="M820.5,952.4c0,3.2-1.8,5.4-6.3,6.3l-4.7,1c0.4,2,1.6,3,3.8,3c2.6,0,4.4-2,4.4-2s1.3,0.7,1.3,2.3c0,2.7-4.1,5.6-9,5.6      c-4.9,0-8.1-3.1-8.1-8.3c0-6,4.3-14.2,11.9-14.2C817.9,946.1,820.5,948.6,820.5,952.4L820.5,952.4z M812.5,955.5      c1-0.3,1.3-1.2,1.3-2.1c0-0.9-0.3-2.2-1.3-2.2c-1.9,0-2.7,3-3,5.3L812.5,955.5z"/>
			</g>
			<g>
				<path d="M836.3,960.5c0,0,1.6,1.5,1.6,4c0,3.3-2.8,4.2-5.2,4.2c-3.1,0-5.3-1.5-7.6-2.3c-0.6,0.7-1.3,1.5-1.9,2.3      c0,0-3.5-0.1-3.5-2.4c0-2.9,4.8-7.8,9.9-13.4c-0.6-0.1-1.2-0.2-1.7-0.2c-2.9,0-4.1,1.5-4.1,1.5s-1.5-1.7-1.4-4      c0.2-3.1,3.1-4,5.5-4c2.5,0,4.3,1,6.1,1.7l1.5-1.7c0,0,3.5,0.1,3.5,2.5c0,2.8-4.6,7.6-9.6,13c1.1,0.3,2,0.5,3,0.5      C835.1,962.2,836.3,960.5,836.3,960.5L836.3,960.5z"/>
			</g>
			<g>
				<path d="M858.7,966.7c-1.2,7.6-6.4,11.4-13,11.4c-4.2,0-7.3-2.2-7.3-4.8c0-1.7,1.4-2.5,1.4-2.5s1.4,1.3,4.2,1.3      c2.6,0,6.2-1.1,6.8-5.1l0.5-3.1c-1.8,2.6-4.1,4.6-7.1,4.6c-3.3,0-4.8-2.7-3.9-8.3l0.9-6c0.6-3.7,0.7-6.7,0.7-6.7      c2.4-0.4,5.5-1.5,6.6-1.5c0.8,0,1.6,0.7,1.6,0.7l-1.2,7.5l-1.1,6.9c-0.1,0.6,0,1,0.6,1c2.8,0,4.3-7.9,4.3-7.9      c0.6-3.7,0.7-6.7,0.7-6.7c2.4-0.4,5.5-1.5,6.6-1.5c0.9,0,1.6,0.7,1.6,0.7l-1.2,7.5L858.7,966.7z"/>
			</g>
		</g>
		<g>
			<path d="M538.1,947.4h7.4c1.7,0,3,0.1,3.8,0.4c1.2,0.3,2.2,1,3,1.9c0.8,0.9,1.5,2,1.9,3.3c0.4,1.3,0.7,2.9,0.7,4.8     c0,1.7-0.2,3.1-0.6,4.3c-0.5,1.5-1.2,2.7-2.2,3.6c-0.7,0.7-1.7,1.2-2.9,1.6c-0.9,0.3-2.1,0.4-3.6,0.4h-7.7V947.4z M542.2,950.8     v13.4h3c1.1,0,2-0.1,2.5-0.2c0.7-0.2,1.2-0.4,1.6-0.8c0.4-0.4,0.8-1,1.1-1.9c0.3-0.9,0.4-2.1,0.4-3.7c0-1.6-0.1-2.8-0.4-3.6     s-0.7-1.5-1.2-2s-1.1-0.8-1.9-0.9c-0.6-0.1-1.7-0.2-3.3-0.2H542.2z"/>
			<path d="M566.4,962.9l3.9,0.6c-0.5,1.4-1.3,2.5-2.3,3.2c-1.1,0.7-2.4,1.1-4,1.1c-2.5,0-4.4-0.8-5.6-2.5c-1-1.3-1.4-3-1.4-5     c0-2.4,0.6-4.3,1.9-5.7c1.3-1.4,2.9-2.1,4.8-2.1c2.2,0,3.9,0.7,5.1,2.2c1.3,1.4,1.9,3.6,1.8,6.6h-9.7c0,1.1,0.3,2,0.9,2.7     c0.6,0.6,1.3,1,2.2,1c0.6,0,1.1-0.2,1.5-0.5C565.8,964.1,566.2,963.6,566.4,962.9z M566.6,959c0-1.1-0.3-2-0.9-2.6     c-0.6-0.6-1.2-0.9-2-0.9c-0.8,0-1.5,0.3-2.1,0.9c-0.6,0.6-0.8,1.4-0.8,2.5H566.6z"/>
			<path d="M571.6,963.4l3.9-0.6c0.2,0.8,0.5,1.3,1,1.7c0.5,0.4,1.2,0.6,2.1,0.6c1,0,1.8-0.2,2.3-0.6c0.3-0.3,0.5-0.6,0.5-1     c0-0.3-0.1-0.5-0.3-0.7c-0.2-0.2-0.6-0.4-1.3-0.5c-3.1-0.7-5.1-1.3-5.9-1.9c-1.2-0.8-1.7-1.9-1.7-3.3c0-1.3,0.5-2.3,1.5-3.2     c1-0.9,2.6-1.3,4.7-1.3c2,0,3.5,0.3,4.5,1c1,0.7,1.6,1.6,2,2.9l-3.6,0.7c-0.2-0.6-0.5-1-0.9-1.3c-0.4-0.3-1.1-0.5-1.9-0.5     c-1,0-1.7,0.1-2.2,0.4c-0.3,0.2-0.4,0.5-0.4,0.8c0,0.3,0.1,0.5,0.4,0.7c0.3,0.3,1.6,0.6,3.6,1.1c2.1,0.5,3.5,1,4.3,1.7     c0.8,0.7,1.2,1.6,1.2,2.9c0,1.3-0.6,2.5-1.7,3.5c-1.1,1-2.8,1.4-5,1.4c-2,0-3.6-0.4-4.7-1.2C572.8,965.8,572,964.7,571.6,963.4z"/>
			<path d="M588.1,950.9v-3.6h3.9v3.6H588.1z M588.1,967.5v-14.6h3.9v14.6H588.1z"/>
			<path d="M595,968.5l4.4,0.5c0.1,0.5,0.2,0.9,0.5,1.1c0.4,0.3,0.9,0.4,1.7,0.4c1,0,1.8-0.2,2.3-0.5c0.3-0.2,0.6-0.5,0.8-1     c0.1-0.3,0.2-0.9,0.2-1.8v-2.1c-1.2,1.6-2.6,2.4-4.4,2.4c-2,0-3.5-0.8-4.7-2.5c-0.9-1.3-1.3-2.9-1.3-4.9c0-2.4,0.6-4.3,1.8-5.6     c1.2-1.3,2.6-1.9,4.4-1.9c1.8,0,3.3,0.8,4.5,2.4v-2.1h3.6V966c0,1.7-0.1,3-0.4,3.9c-0.3,0.9-0.7,1.5-1.2,2     c-0.5,0.5-1.2,0.9-2.1,1.1c-0.9,0.3-1.9,0.4-3.3,0.4c-2.5,0-4.2-0.4-5.3-1.3c-1-0.8-1.6-1.9-1.6-3.2     C595,968.8,595,968.7,595,968.5z M598.5,959.9c0,1.6,0.3,2.7,0.9,3.4c0.6,0.7,1.3,1.1,2.2,1.1c0.9,0,1.7-0.4,2.4-1.1     c0.7-0.7,1-1.8,1-3.3c0-1.5-0.3-2.6-0.9-3.4c-0.6-0.7-1.4-1.1-2.4-1.1c-0.9,0-1.7,0.4-2.3,1.1     C598.8,957.3,598.5,958.4,598.5,959.9z"/>
			<path d="M625.3,967.5h-3.9v-7.5c0-1.6-0.1-2.6-0.2-3.1c-0.2-0.5-0.4-0.8-0.8-1.1c-0.4-0.3-0.8-0.4-1.3-0.4     c-0.7,0-1.3,0.2-1.8,0.6c-0.5,0.4-0.9,0.9-1.1,1.5c-0.2,0.6-0.3,1.7-0.3,3.4v6.6H612v-14.6h3.6v2.1c1.3-1.7,2.9-2.5,4.8-2.5     c0.9,0,1.6,0.2,2.3,0.5c0.7,0.3,1.2,0.7,1.6,1.2c0.4,0.5,0.6,1,0.8,1.6c0.1,0.6,0.2,1.5,0.2,2.6V967.5z"/>
			<path d="M637.2,962.9l3.9,0.6c-0.5,1.4-1.3,2.5-2.3,3.2c-1.1,0.7-2.4,1.1-4,1.1c-2.5,0-4.4-0.8-5.6-2.5c-1-1.3-1.4-3-1.4-5     c0-2.4,0.6-4.3,1.9-5.7c1.3-1.4,2.9-2.1,4.8-2.1c2.2,0,3.9,0.7,5.1,2.2c1.3,1.4,1.9,3.6,1.8,6.6h-9.7c0,1.1,0.3,2,0.9,2.7     c0.6,0.6,1.3,1,2.2,1c0.6,0,1.1-0.2,1.5-0.5C636.6,964.1,636.9,963.6,637.2,962.9z M637.4,959c0-1.1-0.3-2-0.9-2.6     c-0.6-0.6-1.2-0.9-2-0.9c-0.8,0-1.5,0.3-2.1,0.9c-0.6,0.6-0.8,1.4-0.8,2.5H637.4z"/>
			<path d="M657.2,967.5h-3.6v-2.1c-0.6,0.8-1.3,1.5-2.1,1.9c-0.8,0.4-1.6,0.6-2.5,0.6c-1.7,0-3.1-0.7-4.3-2     c-1.2-1.4-1.8-3.2-1.8-5.7c0-2.5,0.6-4.4,1.7-5.7c1.2-1.3,2.6-1.9,4.4-1.9c1.6,0,3,0.7,4.2,2v-7.3h3.9V967.5z M646.9,959.9     c0,1.6,0.2,2.7,0.6,3.4c0.6,1,1.5,1.5,2.6,1.5c0.9,0,1.6-0.4,2.3-1.1c0.6-0.8,0.9-1.9,0.9-3.4c0-1.7-0.3-2.9-0.9-3.6     c-0.6-0.7-1.4-1.1-2.3-1.1c-0.9,0-1.7,0.4-2.3,1.1C647.2,957.4,646.9,958.5,646.9,959.9z"/>
			<path d="M667.6,967.5v-20.2h3.9v7.3c1.2-1.4,2.6-2,4.2-2c1.8,0,3.3,0.6,4.4,1.9c1.2,1.3,1.7,3.1,1.7,5.6c0,2.5-0.6,4.4-1.8,5.8     c-1.2,1.3-2.6,2-4.3,2c-0.8,0-1.7-0.2-2.5-0.6c-0.8-0.4-1.5-1-2.1-1.9v2.1H667.6z M671.4,959.9c0,1.5,0.2,2.6,0.7,3.4     c0.7,1,1.6,1.5,2.7,1.5c0.9,0,1.6-0.4,2.2-1.1c0.6-0.7,0.9-1.9,0.9-3.4c0-1.7-0.3-2.9-0.9-3.6c-0.6-0.7-1.4-1.1-2.3-1.1     c-0.9,0-1.7,0.4-2.3,1.1C671.7,957.3,671.4,958.4,671.4,959.9z"/>
			<path d="M682.6,952.9h4.1l3.5,10.4l3.4-10.4h4l-5.2,14.1l-0.9,2.5c-0.3,0.9-0.7,1.5-1,2c-0.3,0.4-0.7,0.8-1.1,1.1     c-0.4,0.3-0.9,0.5-1.5,0.7c-0.6,0.2-1.2,0.2-2,0.2c-0.7,0-1.5-0.1-2.2-0.2l-0.3-3c0.6,0.1,1.2,0.2,1.6,0.2c0.9,0,1.6-0.3,2-0.8     c0.4-0.5,0.8-1.2,1-2L682.6,952.9z"/>
		</g>
	</g>
</g>
</svg>
