<?xml version="1.0" encoding="iso-8859-1"?>
<!-- Uploaded to: SVG Repo, www.svgrepo.com, Generator: SVG Repo Mixer Tools -->
<svg height="800px" width="800px" version="1.1" id="Layer_1" xmlns="http://www.w3.org/2000/svg" xmlns:xlink="http://www.w3.org/1999/xlink" 
	 viewBox="0 0 512 512" xml:space="preserve">
<g>
	<g>
		<path style="fill:#D1D4D1;" d="M194.207,61.793c-4.873,0-8.828-3.955-8.828-8.828V35.31c0-4.873,3.955-8.828,8.828-8.828
			s8.828,3.955,8.828,8.828v17.655C203.034,57.838,199.08,61.793,194.207,61.793 M194.207,105.931c-4.873,0-8.828-3.955-8.828-8.828
			V79.448c0-4.873,3.955-8.828,8.828-8.828s8.828,3.955,8.828,8.828v17.655C203.034,101.976,199.08,105.931,194.207,105.931
			 M194.207,150.069c-4.873,0-8.828-3.955-8.828-8.828v-17.655c0-4.873,3.955-8.828,8.828-8.828s8.828,3.955,8.828,8.828v17.655
			C203.034,146.114,199.08,150.069,194.207,150.069 M194.207,194.207c-4.873,0-8.828-3.955-8.828-8.828v-17.655
			c0-4.873,3.955-8.828,8.828-8.828s8.828,3.955,8.828,8.828v17.655C203.034,190.252,199.08,194.207,194.207,194.207
			 M194.207,238.345c-4.873,0-8.828-3.955-8.828-8.828v-17.655c0-4.873,3.955-8.828,8.828-8.828s8.828,3.955,8.828,8.828v17.655
			C203.034,234.39,199.08,238.345,194.207,238.345 M194.207,282.483c-4.873,0-8.828-3.955-8.828-8.828V256
			c0-4.873,3.955-8.828,8.828-8.828s8.828,3.955,8.828,8.828v17.655C203.034,278.528,199.08,282.483,194.207,282.483"/>
		<path style="fill:#D1D4D1;" d="M317.793,61.793c-4.873,0-8.828-3.955-8.828-8.828V35.31c0-4.873,3.955-8.828,8.828-8.828
			c4.873,0,8.828,3.955,8.828,8.828v17.655C326.621,57.838,322.666,61.793,317.793,61.793 M317.793,105.931
			c-4.873,0-8.828-3.955-8.828-8.828V79.448c0-4.873,3.955-8.828,8.828-8.828c4.873,0,8.828,3.955,8.828,8.828v17.655
			C326.621,101.976,322.666,105.931,317.793,105.931 M317.793,150.069c-4.873,0-8.828-3.955-8.828-8.828v-17.655
			c0-4.873,3.955-8.828,8.828-8.828c4.873,0,8.828,3.955,8.828,8.828v17.655C326.621,146.114,322.666,150.069,317.793,150.069
			 M317.793,194.207c-4.873,0-8.828-3.955-8.828-8.828v-17.655c0-4.873,3.955-8.828,8.828-8.828c4.873,0,8.828,3.955,8.828,8.828
			v17.655C326.621,190.252,322.666,194.207,317.793,194.207 M317.793,238.345c-4.873,0-8.828-3.955-8.828-8.828v-17.655
			c0-4.873,3.955-8.828,8.828-8.828c4.873,0,8.828,3.955,8.828,8.828v17.655C326.621,234.39,322.666,238.345,317.793,238.345
			 M317.793,282.483c-4.873,0-8.828-3.955-8.828-8.828V256c0-4.873,3.955-8.828,8.828-8.828c4.873,0,8.828,3.955,8.828,8.828v17.655
			C326.621,278.528,322.666,282.483,317.793,282.483"/>
	</g>
	<path style="fill:#F7C346;" d="M358.568,387.988l-2.154-17.231H155.586l-2.154,17.231c-1.986,15.898,6.877,31.17,21.672,37.341
		c51.774,21.575,110.018,21.575,161.792,0C351.691,419.159,360.554,403.887,358.568,387.988"/>
	<path style="fill:#F18D46;" d="M356.414,370.759l-9.242-73.905c-1.651-13.25-12.915-23.199-26.271-23.199H191.1
		c-13.356,0-24.62,9.949-26.271,23.199l-9.242,73.905H356.414z"/>
	<path style="fill:#556080;" d="M432.552,0H79.448c-19.5,0-35.31,15.81-35.31,35.31l0,0L0,512h35.31L79.448,35.31h353.103
		L476.69,512H512L467.862,35.31l0,0C467.862,15.81,452.052,0,432.552,0"/>
	<path style="fill:#F18D46;" d="M264.828,441.289v-70.532h-17.655v70.532C253.052,441.536,258.948,441.536,264.828,441.289"/>
</g>
</svg>